<svg width="20" height="20" viewBox="0 0 20 20" fill="none" xmlns="http://www.w3.org/2000/svg">
<path d="M20 10C20 11.9778 19.4135 13.9112 18.3147 15.5557C17.2159 17.2002 15.6541 18.4819 13.8268 19.2388C11.9996 19.9957 9.98891 20.1937 8.0491 19.8078C6.10929 19.422 4.32746 18.4696 2.92894 17.0711C1.53041 15.6725 0.578004 13.8907 0.192152 11.9509C-0.1937 10.0111 0.00433284 8.00042 0.761209 6.17316C1.51809 4.3459 2.79981 2.78412 4.4443 1.6853C6.08879 0.58649 8.02219 0 10 0C12.6513 0.00279983 15.1932 1.05727 17.068 2.93202C18.9427 4.80678 19.9972 7.34869 20 10ZM18.4615 10C18.4615 8.32646 17.9653 6.69051 17.0355 5.29902C16.1057 3.90753 14.7842 2.82299 13.2381 2.18256C11.692 1.54212 9.99062 1.37456 8.34924 1.70105C6.70786 2.02754 5.20016 2.83342 4.01679 4.01679C2.83343 5.20016 2.02754 6.70786 1.70105 8.34923C1.37456 9.99061 1.54213 11.6919 2.18256 13.2381C2.823 14.7842 3.90753 16.1057 5.29902 17.0355C6.69052 17.9653 8.32647 18.4615 10 18.4615C12.2434 18.459 14.3941 17.5667 15.9804 15.9804C17.5667 14.3941 18.459 12.2434 18.4615 10Z" fill="#667578"/>
</svg>
